<svg width="20" height="20" viewBox="0 0 20 20" fill="none" xmlns="http://www.w3.org/2000/svg">
<mask id="mask0_10026_3381" style="mask-type:alpha" maskUnits="userSpaceOnUse" x="0" y="0" width="20" height="20">
<rect width="20" height="20" fill="#D9D9D9"/>
</mask>
<g mask="url(#mask0_10026_3381)">
<path fill-rule="evenodd" clip-rule="evenodd" d="M11.8332 10.8333C11.2809 10.8333 10.8332 11.281 10.8332 11.8333V13.3333C10.8332 13.7936 10.4601 14.1667 9.99984 14.1667C9.5396 14.1667 9.1665 13.7936 9.1665 13.3333V11.8333C9.1665 11.281 8.71879 10.8333 8.1665 10.8333H6.6665C6.20627 10.8333 5.83317 10.4602 5.83317 9.99999C5.83317 9.53975 6.20627 9.16666 6.6665 9.16666H8.1665C8.71879 9.16666 9.1665 8.71894 9.1665 8.16666V6.66666C9.1665 6.20642 9.5396 5.83332 9.99984 5.83332C10.4601 5.83332 10.8332 6.20642 10.8332 6.66666V8.16666C10.8332 8.71894 11.2809 9.16666 11.8332 9.16666H13.3332C13.7934 9.16666 14.1665 9.53975 14.1665 9.99999C14.1665 10.4602 13.7934 10.8333 13.3332 10.8333H11.8332Z" fill="black"/>
</g>
</svg>
