<svg width="20" height="20" viewBox="0 0 20 20" fill="none" xmlns="http://www.w3.org/2000/svg">
<mask id="mask0_10026_3378" style="mask-type:alpha" maskUnits="userSpaceOnUse" x="0" y="0" width="20" height="20">
<rect width="20" height="20" fill="#D9D9D9"/>
</mask>
<g mask="url(#mask0_10026_3378)">
<path fill-rule="evenodd" clip-rule="evenodd" d="M10.5837 11.5834C10.9058 11.9056 10.9058 12.4279 10.5837 12.7501C10.2615 13.0722 9.73916 13.0722 9.41699 12.7501L7.3741 10.7072C6.98357 10.3166 6.98357 9.68347 7.3741 9.29294L9.41699 7.25005C9.73916 6.92789 10.2615 6.92788 10.5837 7.25005C10.9058 7.57222 10.9058 8.09455 10.5837 8.41672L9.83366 9.16672H12.5003C12.9606 9.16672 13.3337 9.53981 13.3337 10.0001C13.3337 10.4603 12.9606 10.8334 12.5003 10.8334H9.83366L10.5837 11.5834Z" fill="black"/>
</g>
</svg>
