<svg width="20" height="20" viewBox="0 0 20 20" fill="none" xmlns="http://www.w3.org/2000/svg">
<mask id="mask0_10026_3375" style="mask-type:alpha" maskUnits="userSpaceOnUse" x="0" y="0" width="20" height="20">
<rect x="20" y="20" width="20" height="20" transform="rotate(-180 20 20)" fill="#D9D9D9"/>
</mask>
<g mask="url(#mask0_10026_3375)">
<path fill-rule="evenodd" clip-rule="evenodd" d="M9.41634 8.41661C9.09418 8.09445 9.09418 7.57211 9.41634 7.24995C9.73851 6.92778 10.2608 6.92778 10.583 7.24995L12.6259 9.29284C13.0164 9.68337 13.0164 10.3165 12.6259 10.7071L10.583 12.7499C10.2608 13.0721 9.73851 13.0721 9.41634 12.7499C9.09417 12.4278 9.09417 11.9054 9.41634 11.5833L10.1663 10.8333L7.49967 10.8333C7.03944 10.8333 6.66634 10.4602 6.66634 9.99995C6.66634 9.53971 7.03944 9.16661 7.49967 9.16661L10.1663 9.16661L9.41634 8.41661Z" fill="black"/>
</g>
</svg>
