<svg width="16" height="16" viewBox="0 0 16 16" fill="none" xmlns="http://www.w3.org/2000/svg">
<path d="M10.8428 13.069L6.23178 8.38399C6.13065 8.28177 6.07393 8.14378 6.07393 7.99999C6.07393 7.8562 6.13065 7.71821 6.23178 7.61599L10.8418 2.92999C10.9429 2.82713 10.9995 2.6887 10.9995 2.54449C10.9995 2.40028 10.9429 2.26185 10.8418 2.15899C10.7924 2.10834 10.7334 2.06809 10.6682 2.04061C10.603 2.01312 10.533 1.99896 10.4623 1.99896C10.3915 1.99896 10.3215 2.01312 10.2563 2.04061C10.1912 2.06809 10.1322 2.10834 10.0828 2.15899L5.47278 6.84299C5.16985 7.15151 5.00013 7.56661 5.00013 7.99899C5.00013 8.43137 5.16985 8.84647 5.47278 9.15499L10.0828 13.839C10.1322 13.8898 10.1912 13.9302 10.2565 13.9577C10.3218 13.9853 10.3919 13.9995 10.4628 13.9995C10.5336 13.9995 10.6038 13.9853 10.669 13.9577C10.7343 13.9302 10.7934 13.8898 10.8428 13.839C10.9439 13.7361 11.0005 13.5977 11.0005 13.4535C11.0005 13.3093 10.9439 13.1708 10.8428 13.068" fill="black"/>
</svg>
