<svg width="16" height="16" viewBox="0 0 16 16" fill="none" xmlns="http://www.w3.org/2000/svg">
<path d="M5.15722 13.069L9.76822 8.38399C9.86935 8.28177 9.92607 8.14378 9.92607 7.99999C9.92607 7.8562 9.86935 7.71821 9.76822 7.61599L5.15822 2.92999C5.05715 2.82713 5.00051 2.6887 5.00051 2.54449C5.00051 2.40028 5.05715 2.26185 5.15822 2.15899C5.2076 2.10834 5.26662 2.06809 5.33179 2.04061C5.39697 2.01312 5.46699 1.99896 5.53772 1.99896C5.60846 1.99896 5.67848 2.01312 5.74365 2.04061C5.80883 2.06809 5.86785 2.10834 5.91722 2.15899L10.5272 6.84299C10.8302 7.15151 10.9999 7.56661 10.9999 7.99899C10.9999 8.43137 10.8302 8.84647 10.5272 9.15499L5.91722 13.839C5.86783 13.8898 5.80875 13.9302 5.74348 13.9577C5.67822 13.9853 5.60808 13.9995 5.53722 13.9995C5.46637 13.9995 5.39623 13.9853 5.33096 13.9577C5.26569 13.9302 5.20662 13.8898 5.15722 13.839C5.05615 13.7361 4.99951 13.5977 4.99951 13.4535C4.99951 13.3093 5.05615 13.1708 5.15722 13.068" fill="black"/>
</svg>
