<svg width="9" height="50" viewBox="0 0 9 50" fill="none" xmlns="http://www.w3.org/2000/svg">
<path d="M8.76345 46.1229L1.84736 26.603C1.69567 26.1771 1.6106 25.6022 1.6106 25.0031C1.6106 24.404 1.69567 23.8291 1.84736 23.4032L8.76195 3.8791C8.91355 3.45055 8.9985 2.87376 8.9985 2.27292C8.9985 1.67209 8.91355 1.09529 8.76195 0.666749C8.68788 0.455723 8.59937 0.288014 8.50161 0.173504C8.40385 0.0589938 8.29883 0 8.19273 0C8.08663 0 7.98161 0.0589938 7.88385 0.173504C7.78609 0.288014 7.69757 0.455723 7.62351 0.666749L0.708925 20.1825C0.254563 21.4679 0 23.1974 0 24.9989C0 26.8004 0.254563 28.5299 0.708925 29.8154L7.62351 49.3311C7.6976 49.5428 7.78621 49.711 7.88411 49.8259C7.98201 49.9408 8.0872 50 8.19348 50C8.29976 50 8.40495 49.9408 8.50285 49.8259C8.60075 49.711 8.68936 49.5428 8.76345 49.3311C8.91505 48.9026 9 48.3258 9 47.7249C9 47.1241 8.91505 46.5473 8.76345 46.1188" fill="black"/>
</svg>
